<svg width="32" height="32" viewBox="0 0 32 32" fill="none" xmlns="http://www.w3.org/2000/svg">
<g clip-path="url(#clip0_905_4520)">
<path d="M18 17C18 18.652 19.23 20 20.72 20C22.244 20 23.42 18.658 23.44 17C23.46 15.342 22.25 14 20.72 14C19.184 14 18 15.354 18 17ZM11.26 20C9.76604 20 8.54004 18.658 8.54004 17C8.54004 15.342 9.73204 14 11.26 14C12.788 14 14.02 15.354 14 17C13.974 18.652 12.796 20 11.28 20H11.26Z" fill="currentColor"/>
<path fill-rule="evenodd" clip-rule="evenodd" d="M26.6001 5.44002C26.9303 5.58949 27.2138 5.82591 27.4201 6.12402C30.8401 11.064 32.5601 16.704 31.9201 23.184C31.8927 23.4644 31.8064 23.7358 31.6668 23.9806C31.5272 24.2253 31.3375 24.4377 31.1101 24.604C28.7901 26.306 26.1701 27.604 23.4101 28.424C23.0203 28.5415 22.6038 28.536 22.2173 28.4082C21.8308 28.2804 21.493 28.0366 21.2501 27.71C20.7664 27.0641 20.3222 26.3896 19.9201 25.69C17.368 26.2269 14.7321 26.2269 12.1801 25.69C11.7832 26.3923 11.3395 27.0672 10.8521 27.71C10.6058 28.0383 10.2646 28.2829 9.87461 28.4106C9.48463 28.5384 9.0648 28.543 8.67207 28.424C5.90845 27.5938 3.3051 26.3022 0.97207 24.604C0.744422 24.4375 0.554567 24.2247 0.414968 23.9797C0.275369 23.7346 0.189184 23.4628 0.16207 23.182C-0.37593 17.602 0.71607 11.902 4.66207 6.14202C4.86807 5.84002 5.15407 5.60002 5.48807 5.44802C7.48607 4.54402 9.58807 3.90002 11.7681 3.53402C12.5981 3.39402 13.4281 3.79002 13.8481 4.52202L14.0261 4.84402C15.3727 4.72802 16.7261 4.72802 18.0861 4.84402L18.2621 4.52202C18.4647 4.16307 18.7733 3.87549 19.1456 3.69863C19.5179 3.52178 19.9358 3.46428 20.3421 3.53402C22.5021 3.89602 24.6221 4.53802 26.6221 5.44402L26.6001 5.44002ZM19.2601 6.99202C17.1316 6.67809 14.9686 6.67809 12.8401 6.99202C12.6193 6.48353 12.3723 5.98686 12.1001 5.50402C10.1041 5.84002 8.16007 6.43402 6.32007 7.26802C2.66007 12.628 1.68007 17.848 2.16007 22.988C4.30007 24.554 6.70007 25.748 9.24007 26.508C9.57055 26.0701 9.87829 25.6155 10.1621 25.146C10.3727 24.7993 10.5707 24.446 10.7561 24.086C9.9277 23.7804 9.12793 23.4023 8.36607 22.956C8.56607 22.8107 8.7614 22.6653 8.95207 22.52C10.1567 23.0793 11.4226 23.4954 12.7241 23.76C15.4808 24.3114 18.3319 24.1622 21.0161 23.326C21.7274 23.1054 22.4224 22.8354 23.0961 22.518C23.2881 22.674 23.4834 22.8193 23.6821 22.954C23.4956 23.0614 23.3076 23.1661 23.1181 23.268C22.5258 23.5793 21.9146 23.8532 21.2881 24.088C21.6003 24.6884 21.9462 25.2706 22.3241 25.832C22.4801 26.0587 22.6407 26.2833 22.8061 26.506C25.3461 25.746 27.7461 24.556 29.8861 22.986C30.4681 17.026 28.8921 11.846 25.7261 7.26602C23.8861 6.43202 21.9461 5.84202 19.9461 5.50802C19.6741 5.99068 19.4274 6.48668 19.2061 6.99602L19.2601 6.99202Z" fill="currentColor"/>
</g>
<defs>
<clipPath id="clip0_905_4520">
<rect width="32" height="32" fill="currentColor"/>
</clipPath>
</defs>
</svg>