<svg width="28" height="28" viewBox="0 0 28 28" fill="none" xmlns="http://www.w3.org/2000/svg">
<path d="M8.40008 0.666656H19.6001C23.8667 0.666656 27.3334 4.13332 27.3334 8.39999V19.6C27.3334 21.651 26.5187 23.618 25.0684 25.0683C23.6181 26.5186 21.6511 27.3333 19.6001 27.3333H8.40008C4.13341 27.3333 0.666748 23.8667 0.666748 19.6V8.39999C0.666748 6.34898 1.48151 4.38198 2.93179 2.9317C4.38207 1.48142 6.34907 0.666656 8.40008 0.666656ZM8.13341 3.33332C6.86037 3.33332 5.63948 3.83904 4.7393 4.73921C3.83913 5.63939 3.33341 6.86028 3.33341 8.13332V19.8667C3.33341 22.52 5.48008 24.6667 8.13341 24.6667H19.8667C21.1398 24.6667 22.3607 24.1609 23.2609 23.2608C24.161 22.3606 24.6667 21.1397 24.6667 19.8667V8.13332C24.6667 5.47999 22.5201 3.33332 19.8667 3.33332H8.13341ZM21.0001 5.33332C21.4421 5.33332 21.866 5.50892 22.1786 5.82148C22.4912 6.13404 22.6667 6.55796 22.6667 6.99999C22.6667 7.44202 22.4912 7.86594 22.1786 8.1785C21.866 8.49106 21.4421 8.66666 21.0001 8.66666C20.5581 8.66666 20.1341 8.49106 19.8216 8.1785C19.509 7.86594 19.3334 7.44202 19.3334 6.99999C19.3334 6.55796 19.509 6.13404 19.8216 5.82148C20.1341 5.50892 20.5581 5.33332 21.0001 5.33332ZM14.0001 7.33332C15.7682 7.33332 17.4639 8.0357 18.7141 9.28594C19.9644 10.5362 20.6667 12.2319 20.6667 14C20.6667 15.7681 19.9644 17.4638 18.7141 18.714C17.4639 19.9643 15.7682 20.6667 14.0001 20.6667C12.232 20.6667 10.5363 19.9643 9.28604 18.714C8.03579 17.4638 7.33341 15.7681 7.33341 14C7.33341 12.2319 8.03579 10.5362 9.28604 9.28594C10.5363 8.0357 12.232 7.33332 14.0001 7.33332ZM14.0001 9.99999C12.9392 9.99999 11.9218 10.4214 11.1717 11.1716C10.4215 11.9217 10.0001 12.9391 10.0001 14C10.0001 15.0609 10.4215 16.0783 11.1717 16.8284C11.9218 17.5786 12.9392 18 14.0001 18C15.0609 18 16.0784 17.5786 16.8285 16.8284C17.5787 16.0783 18.0001 15.0609 18.0001 14C18.0001 12.9391 17.5787 11.9217 16.8285 11.1716C16.0784 10.4214 15.0609 9.99999 14.0001 9.99999Z" fill="#142B7F"/>
</svg>
