<svg width="28" height="28" viewBox="0 0 28 28" fill="none" xmlns="http://www.w3.org/2000/svg">
<path fill-rule="evenodd" clip-rule="evenodd" d="M3.66667 0.666687C2.69421 0.666687 1.76158 1.053 1.07394 1.74063C0.386309 2.42826 0 3.36089 0 4.33335C0 5.30581 0.386309 6.23845 1.07394 6.92608C1.76158 7.61371 2.69421 8.00002 3.66667 8.00002C4.63913 8.00002 5.57176 7.61371 6.25939 6.92608C6.94703 6.23845 7.33333 5.30581 7.33333 4.33335C7.33333 3.36089 6.94703 2.42826 6.25939 1.74063C5.57176 1.053 4.63913 0.666687 3.66667 0.666687ZM2 4.33335C2 3.89133 2.17559 3.4674 2.48816 3.15484C2.80072 2.84228 3.22464 2.66669 3.66667 2.66669C4.10869 2.66669 4.53262 2.84228 4.84518 3.15484C5.15774 3.4674 5.33333 3.89133 5.33333 4.33335C5.33333 4.77538 5.15774 5.1993 4.84518 5.51187C4.53262 5.82443 4.10869 6.00002 3.66667 6.00002C3.22464 6.00002 2.80072 5.82443 2.48816 5.51187C2.17559 5.1993 2 4.77538 2 4.33335ZM0 9.66669C0 9.40147 0.105357 9.14712 0.292893 8.95958C0.480429 8.77204 0.734784 8.66669 1 8.66669H6.33333C6.59855 8.66669 6.8529 8.77204 7.04044 8.95958C7.22798 9.14712 7.33333 9.40147 7.33333 9.66669V27C7.33333 27.2652 7.22798 27.5196 7.04044 27.7071C6.8529 27.8947 6.59855 28 6.33333 28H1C0.734784 28 0.480429 27.8947 0.292893 27.7071C0.105357 27.5196 0 27.2652 0 27V9.66669ZM2 10.6667V26H5.33333V10.6667H2ZM9.33333 9.66669C9.33333 9.40147 9.43869 9.14712 9.62623 8.95958C9.81376 8.77204 10.0681 8.66669 10.3333 8.66669H15.6667C15.9319 8.66669 16.1862 8.77204 16.3738 8.95958C16.5613 9.14712 16.6667 9.40147 16.6667 9.66669V10.2454L17.2467 9.99602C18.2467 9.56882 19.3076 9.30113 20.3907 9.20269C24.0907 8.86669 27.3333 11.7734 27.3333 15.5067V27C27.3333 27.2652 27.228 27.5196 27.0404 27.7071C26.8529 27.8947 26.5986 28 26.3333 28H21C20.7348 28 20.4804 27.8947 20.2929 27.7071C20.1054 27.5196 20 27.2652 20 27V17.6667C20 17.2247 19.8244 16.8007 19.5118 16.4882C19.1993 16.1756 18.7754 16 18.3333 16C17.8913 16 17.4674 16.1756 17.1548 16.4882C16.8423 16.8007 16.6667 17.2247 16.6667 17.6667V27C16.6667 27.2652 16.5613 27.5196 16.3738 27.7071C16.1862 27.8947 15.9319 28 15.6667 28H10.3333C10.0681 28 9.81376 27.8947 9.62623 27.7071C9.43869 27.5196 9.33333 27.2652 9.33333 27V9.66669ZM11.3333 10.6667V26H14.6667V17.6667C14.6667 16.6942 15.053 15.7616 15.7406 15.074C16.4282 14.3863 17.3609 14 18.3333 14C19.3058 14 20.2384 14.3863 20.9261 15.074C21.6137 15.7616 22 16.6942 22 17.6667V26H25.3333V15.5067C25.3333 12.968 23.1187 10.9627 20.5733 11.1947C19.6989 11.274 18.8422 11.49 18.0347 11.8347L16.0613 12.6814C15.9091 12.7467 15.7431 12.7733 15.5781 12.7586C15.4131 12.7439 15.2543 12.6885 15.116 12.5973C14.9777 12.5061 14.8643 12.3819 14.7859 12.236C14.7074 12.0901 14.6665 11.927 14.6667 11.7614V10.6667H11.3333Z" fill="#142B7F"/>
</svg>
