<svg xmlns="http://www.w3.org/2000/svg" width="199" height="72" fill="none" viewBox="0 0 199 72">
  <path fill="#0e1259" fill-rule="evenodd" d="M25.77 43.068h-14.1V28.956c0-4.968 4.032-9 9-9h5.1z" clip-rule="evenodd"/>
  <path fill="#ff791f" fill-rule="evenodd" d="M11.646 43.362h14.093v14.094c0 4.968-4.032 9-9 9h-5.094z" clip-rule="evenodd"/>
  <path fill="#ff791f" d="M23.976 45.024a9.084 9.084 0 1 0 0-18.168 9.084 9.084 0 0 0 0 18.168"/>
  <path fill="#0e1259" fill-rule="evenodd" d="M13.403 41.598c5.022 0 9.09 4.068 9.09 9.084s-4.068 9.09-9.084 9.09-9.09-4.068-9.09-9.084c0-5.022 4.068-9.09 9.084-9.09" clip-rule="evenodd"/>
  <path fill="#0e1259" d="M18.503 19.986a7.23 7.23 0 1 0 0-14.46 7.23 7.23 0 0 0 0 14.46M41.346 18.156v-.612h8.262v.612h-.384q-1.332-.002-1.746.222-.416.218-.552.822c-.096.402-.138 1.35-.138 2.85v8.862q.002 2.133.102 2.79c.066.438.246.768.534.978.288.216.84.318 1.662.318h.534v.612h-8.262v-.612h.534q1.16.002 1.608-.294c.3-.198.486-.498.564-.912q.118-.62.12-2.886v-8.862q-.002-2.161-.12-2.784-.119-.63-.534-.864-.412-.242-1.788-.24h-.396M54.06 24.258h.36q.303.828.347 2.25c.642-.756 1.308-1.32 2.01-1.692a4.64 4.64 0 0 1 2.202-.558c.768 0 1.584.18 2.142.546s.912.81 1.074 1.338.24 1.302.24 2.31v3.414q.001 1.89.066 2.304c.042.276.186.48.42.618q.35.206 1.302.204v.612h-5.586v-.612h.252c.642 0 1.056-.096 1.254-.282s.306-.402.336-.654c.024-.246.042-.984.042-2.202v-3.522c0-.864-.042-1.476-.126-1.848-.084-.366-.312-.696-.678-.978s-.84-.426-1.404-.426-1.266.192-1.86.582c-.594.384-1.146.966-1.674 1.74v4.452q0 1.89.072 2.304.073.413.426.618.351.206 1.314.204v.612h-5.52v-.612q.918.002 1.278-.186a.8.8 0 0 0 .444-.564c.06-.252.084-1.044.084-2.382v-3.252q0-1.906-.072-2.31a.86.86 0 0 0-.426-.612q-.351-.206-1.314-.204v-.612q1.468-.162 3-.612zM65.91 35.964v-3.588h.522q.909 3.106 3.24 3.108c1.554 0 1.182-.204 1.512-.612.336-.408.498-.858.498-1.344s-.18-1.038-.534-1.398c-.366-.366-1.068-.804-2.118-1.32-1.104-.54-1.89-1.074-2.37-1.602q-.72-.774-.72-1.908c0-.756.258-1.404.774-2.058q.776-.98 2.172-.978c.93 0 1.74.384 2.358 1.158q.198-.198.522-.972h.492v3.372h-.492q-.269-1.215-1.032-2.088c-.51-.582-1.116-.876-1.806-.876s-.966.162-1.296.492q-.493.496-.492 1.146c0 .432.18.894.546 1.242.354.354 1.038.762 2.04 1.212q2.268 1.026 2.772 1.998.504.99.504 1.89c0 .954-.312 1.722-.942 2.322-.624.594-1.416.894-2.364.894s-1.896-.414-2.682-1.242q-.362.398-.588 1.146h-.522zM77.28 24.258h.36q.226.747.227 1.8.856-.909 1.83-1.35a4.9 4.9 0 0 1 2.07-.444c1.512 0 2.766.534 3.774 1.59q1.504 1.595 1.506 4.206c0 1.74-.504 3.132-1.512 4.278q-1.512 1.72-3.978 1.722c-1.644 0-1.32-.138-1.938-.408q-.925-.405-1.752-1.206v4.146q0 1.89.072 2.304.07.413.42.618.343.206 1.29.204v.612h-5.706v-.612h.402c.63 0 1.044-.09 1.23-.276.192-.18.3-.402.336-.654q.046-.38.048-2.208v-9.918q-.002-1.745-.048-2.202-.045-.451-.378-.696-.333-.241-1.188-.24h-.402v-.612q1.323-.135 3.33-.666zm.587 9.306c.48.588.99 1.026 1.524 1.326.54.3 1.104.444 1.698.444q1.503-.002 2.628-1.29c.744-.864 1.122-2.232 1.122-4.116s-.36-2.856-1.08-3.666q-1.08-1.213-2.574-1.212c-.996 0-1.194.156-1.746.468q-.827.467-1.572 1.41zM92.532 24.258v7.614q0 1.745.054 2.202.052.451.384.696.333.242 1.188.24h.282v.612h-5.88v-.612h.456q.947.001 1.236-.276c.192-.18.3-.402.336-.654q.046-.38.048-2.208v-3.306c0-1.278-.06-2.064-.18-2.346q-.181-.424-.48-.534-.297-.108-1.044-.108h-.36v-.612q2.375-.242 3.678-.708h.294zm-2.574-5.574c0-.384.138-.708.408-.984s.6-.414.978-.414.708.138.972.414.402.606.402.984a1.4 1.4 0 0 1-.402 1.002 1.3 1.3 0 0 1-.972.414c-.378 0-.708-.138-.978-.414a1.38 1.38 0 0 1-.408-1.002M99.504 27.042q.452-1.186 1.47-1.986t1.992-.798c.648 0 1.05.18 1.386.546q.504.548.504 1.122c0 .384-.084.48-.258.666a.84.84 0 0 1-.636.282q-.665-.002-1.014-.984-.243-.666-.72-.666c-.318 0-.84.258-1.374.78q-.801.783-1.026 1.62-.227.837-.228 2.304v1.944q.001 1.744.048 2.202.045.451.378.696.333.242 1.188.24h.372v.612H95.79v-.612h.282q.8.002 1.14-.222a.89.89 0 0 0 .408-.618c.042-.264.066-1.032.066-2.292V28.8c0-1.176-.018-1.908-.048-2.208a.95.95 0 0 0-.378-.696q-.333-.244-1.188-.246h-.282v-.6q1.25-.146 3.282-.786.389 1.055.426 2.784zM116.94 33.618h.492c-.078 1.518-.828 2.28-2.238 2.28s-1.08-.162-1.434-.48-.582-.798-.684-1.428q-1.332.944-2.43 1.428-1.096.478-1.968.48c-.582 0-1.374-.216-1.908-.642q-.8-.639-.798-1.692c0-.702.444-1.716 1.338-2.4s2.124-1.35 3.702-1.998l2.064-.84v-.534q0-1.134-.144-1.638c-.096-.336-.354-.642-.762-.906s-.948-.402-1.614-.402q-2 0-2.226 1.332-.215 1.36-1.122 1.362c-.606 0-.816-.258-.816-.774s.36-1.05 1.08-1.632q1.082-.875 3.36-.876c1.518 0 2.004.18 2.628.534s1.032.762 1.23 1.212c.198.456.3 1.146.3 2.082v4.41q0 1.547.162 1.986c.108.294.336.438.696.438.588 0 .948-.438 1.092-1.308zm-3.864-4.668-1.452.588c-2.292.936-3.438 2.106-3.438 3.522s.144 1.008.438 1.35q.442.514 1.146.516c.468 0 .9-.138 1.452-.414q.828-.414 1.854-1.242zM118.819 35.964v-3.588h.522q.909 3.106 3.24 3.108c1.554 0 1.181-.204 1.511-.612.336-.408.499-.858.499-1.344s-.18-1.038-.534-1.398c-.366-.366-1.068-.804-2.118-1.32-1.104-.54-1.89-1.074-2.37-1.602q-.72-.774-.72-1.908c0-.756.257-1.404.773-2.058q.775-.98 2.172-.978c.93 0 1.74.384 2.358 1.158q.198-.198.522-.972h.493v3.372h-.493q-.269-1.215-1.032-2.088c-.51-.582-1.115-.876-1.805-.876s-.966.162-1.296.492q-.493.496-.492 1.146c0 .432.179.894.545 1.242.354.354 1.038.762 2.04 1.212q2.268 1.026 2.773 1.998.504.99.503 1.89c0 .954-.311 1.722-.941 2.322-.624.594-1.417.894-2.365.894s-1.896-.414-2.682-1.242q-.362.398-.588 1.146h-.522zM131.213 24.258v7.614q0 1.745.054 2.202.053.451.384.696.333.242 1.188.24h.282v.612h-5.88v-.612h.456q.947.001 1.236-.276c.192-.18.3-.402.336-.654q.047-.38.048-2.208v-3.306c0-1.278-.06-2.064-.18-2.346q-.182-.424-.48-.534-.297-.108-1.044-.108h-.36v-.612q2.374-.242 3.678-.708h.294zm-2.568-5.574c0-.384.138-.708.408-.984s.6-.414.978-.414.708.138.972.414.402.606.402.984a1.4 1.4 0 0 1-.402 1.002 1.3 1.3 0 0 1-.972.414c-.378 0-.708-.138-.978-.414a1.38 1.38 0 0 1-.408-1.002M142.038 35.43v-5.814h.666c.756 3.787 2.544 5.676 5.37 5.676s2.256-.36 2.952-1.086q1.044-1.089 1.044-2.43c0-.893-.306-1.668-.918-2.28q-.92-.908-3.36-1.944c-1.446-.623-2.544-1.163-3.282-1.631a5 5 0 0 1-1.728-1.819 4.84 4.84 0 0 1-.618-2.387q-.001-1.935 1.338-3.222 1.34-1.285 3.39-1.284c1.368 0 1.482.125 2.16.372.678.245 1.368.762 2.082 1.547.408-.486.642-1.02.696-1.584h.588v4.735h-.588c-.336-1.38-.936-2.46-1.794-3.253-.858-.791-1.848-1.187-2.982-1.187s-1.866.294-2.364.876q-.756.872-.756 1.913c0 .697.318 1.543.948 2.119.624.587 1.746 1.241 3.372 1.974 1.554.695 2.688 1.247 3.39 1.674a4.7 4.7 0 0 1 1.698 1.752q.64 1.117.642 2.586c0 1.548-.516 2.802-1.548 3.774-1.032.965-2.406 1.452-4.134 1.452s-3.636-.763-4.956-2.28c-.294.42-.51 1.002-.654 1.758h-.666zM167.274 33.618h.492c-.078 1.518-.828 2.28-2.238 2.28s-1.08-.162-1.434-.48-.582-.798-.684-1.428q-1.332.944-2.43 1.428-1.096.478-1.968.48c-.582 0-1.374-.216-1.908-.642q-.8-.639-.798-1.692c0-.702.444-1.716 1.338-2.4s2.124-1.35 3.702-1.998l2.064-.84v-.534q0-1.134-.144-1.638c-.096-.336-.354-.642-.762-.906s-.948-.402-1.614-.402q-2 0-2.226 1.332-.214 1.36-1.122 1.362c-.606 0-.816-.258-.816-.774s.36-1.05 1.08-1.632q1.082-.875 3.36-.876c1.518 0 2.004.18 2.628.534s1.032.762 1.23 1.212c.198.456.3 1.146.3 2.082v4.41q0 1.547.162 1.986c.108.294.336.438.696.438.588 0 .948-.438 1.092-1.308zm-3.864-4.668-1.452.588c-2.292.936-3.438 2.106-3.438 3.522s.144 1.008.438 1.35q.443.514 1.146.516c.468 0 .9-.138 1.452-.414q.828-.414 1.854-1.242zM175.271 25.315h-3.294v6.6q-.001 1.523.132 2.046.133.531.564.846c.288.216.6.318.924.318.642 0 1.194-.367 1.668-1.093l.426.253a2.88 2.88 0 0 1-1.218 1.326c-.54.3-1.08.444-1.632.444s-1.2-.186-1.686-.564q-.727-.569-.906-1.326c-.12-.504-.18-1.398-.18-2.664v-6.186h-1.584v-.613q1.089-.027 1.962-.917c.576-.594.948-1.428 1.104-2.508h.426v3.425h3.294zM187.602 24.696v7.158c0 1.188.018 1.938.054 2.238q.054.451.396.678.344.227 1.218.228v.612c-1.35.018-2.34.162-2.958.426h-.162c-.282-.486-.438-1.332-.456-2.532-.54.846-1.164 1.482-1.86 1.908a4.35 4.35 0 0 1-2.31.642c-.84 0-1.374-.168-1.932-.498-.558-.336-.942-.738-1.152-1.218q-.314-.721-.312-2.172v-3.72c0-1.26-.024-2.034-.066-2.31a.81.81 0 0 0-.42-.618q-.35-.198-1.302-.198v-.612h3.708v7.572c0 .744.042 1.29.132 1.626s.318.636.678.888q.548.378 1.266.378 1.026.001 1.962-.672c.624-.45 1.044-.924 1.272-1.428s.342-1.218.342-2.154v-2.466q.001-1.783-.042-2.172a1.03 1.03 0 0 0-.342-.672c-.198-.192-.618-.288-1.248-.288h-.282v-.612h3.81zM45.372 54.708V44.124h.774v10.584zM56.97 54.708V44.124h.648l7.542 9.63h-.348v-9.63h.774v10.584h-.636l-7.56-9.63h.348v9.63h-.774zM76.416 54.708V44.124h4.188q1.675.002 2.946.678a5 5 0 0 1 1.974 1.872q.702 1.197.702 2.736t-.702 2.736a4.9 4.9 0 0 1-1.974 1.872c-.846.456-1.83.678-2.946.678h-4.188zm.774-.696h3.354c.996 0 1.866-.198 2.598-.588a4.26 4.26 0 0 0 1.71-1.626q.605-1.034.606-2.382-.001-1.348-.606-2.382a4.26 4.26 0 0 0-1.71-1.626c-.738-.396-1.602-.588-2.598-.588H77.19zM100.53 54.786a5.8 5.8 0 0 1-2.184-.402 5.1 5.1 0 0 1-1.752-1.134 5.2 5.2 0 0 1-1.158-1.71 5.4 5.4 0 0 1-.408-2.124q.002-1.152.408-2.124c.27-.648.66-1.218 1.158-1.71a5.4 5.4 0 0 1 1.752-1.134 5.9 5.9 0 0 1 2.184-.402q1.177-.002 2.184.402a5.21 5.21 0 0 1 2.904 2.826q.414.972.414 2.142c0 .78-.138 1.488-.414 2.142a5.1 5.1 0 0 1-1.158 1.698 5.2 5.2 0 0 1-1.746 1.128 5.8 5.8 0 0 1-2.184.402m0-.714q1.017.002 1.872-.348a4.4 4.4 0 0 0 1.494-.984q.639-.638.99-1.482a4.8 4.8 0 0 0 .354-1.842c0-.66-.12-1.29-.354-1.854a4.7 4.7 0 0 0-.99-1.476 4.4 4.4 0 0 0-1.494-.984 4.9 4.9 0 0 0-1.872-.348c-.672 0-1.302.114-1.872.348a4.516 4.516 0 0 0-2.502 2.46 4.75 4.75 0 0 0-.354 1.854c0 .678.12 1.278.354 1.842s.57 1.056.996 1.482.93.75 1.506.984q.864.35 1.872.348M115.848 54.708V44.124h.648l7.542 9.63h-.348v-9.63h.774v10.584h-.636l-7.56-9.63h.348v9.63h-.774zM136.062 54.012h6.534v.696h-7.302V44.124h7.074v.696h-6.306zm-.09-5.022h5.73v.678h-5.73zM155.329 54.786q-1.179.002-2.232-.402-1.051-.398-1.626-1.038l.348-.576q.542.56 1.488.948.944.386 2.004.384t1.734-.282.996-.75q.324-.468.324-1.044c0-.384-.12-.816-.36-1.086a2.5 2.5 0 0 0-.954-.648 8.5 8.5 0 0 0-1.284-.408 48 48 0 0 1-1.404-.354 6.4 6.4 0 0 1-1.302-.492 2.5 2.5 0 0 1-.948-.822q-.353-.52-.354-1.356c0-.558.132-.966.396-1.392q.396-.639 1.224-1.026c.552-.264 1.266-.396 2.13-.396s1.164.084 1.734.258 1.056.402 1.458.696l-.288.618a5 5 0 0 0-1.428-.672 5.4 5.4 0 0 0-1.476-.222q-1.016 0-1.68.288-.667.286-.984.762-.317.475-.318 1.068c0 .396.12.816.354 1.086a2.4 2.4 0 0 0 .948.648q.592.244 1.302.408c.474.114.942.228 1.404.354s.894.288 1.284.492c.396.204.708.474.954.816q.36.513.36 1.332c0 .546-.138.954-.408 1.386-.27.426-.69.774-1.248 1.026q-.838.386-2.154.384zM168.889 54.708V44.124h.774v10.584zM178.716 54.708l4.866-10.584h.774l4.866 10.584h-.834l-4.596-10.098h.33l-4.584 10.098h-.834zm1.788-2.976.258-.648h6.336l.258.648z"/>
</svg>
