<svg xmlns="http://www.w3.org/2000/svg" width="415" height="600" fill="none" viewBox="0 0 415 600">
  <g opacity=".42">
    <path fill="#0e1259" fill-rule="evenodd" d="M293.563 379.833H161.074V247.225c0-22.43 8.91-43.941 24.771-59.801a84.57 84.57 0 0 1 59.801-24.771h47.92v217.18z" clip-rule="evenodd"/>
    <path fill="#ff791f" fill-rule="evenodd" d="M160.824 382.551h132.422V514.99a84.57 84.57 0 0 1-84.572 84.571h-47.85z" clip-rule="evenodd"/>
    <path fill="#ff791f" d="M276.691 398.209c47.155 0 85.382-38.227 85.382-85.382s-38.227-85.383-85.382-85.383-85.382 38.227-85.382 85.383 38.227 85.382 85.382 85.382"/>
    <path fill="#0e1259" fill-rule="evenodd" d="M177.377 365.992A85.409 85.409 0 1 1 92 451.404a85.4 85.4 0 0 1 85.377-85.412" clip-rule="evenodd"/>
    <path fill="#0e1259" d="M225.296 162.913c37.532 0 67.957-30.425 67.957-67.956S262.828 27 225.296 27 157.34 57.425 157.34 94.957s30.425 67.956 67.956 67.956"/>
  </g>
  <path fill="#0e1259" fill-rule="evenodd" d="M273.563 366.833H141.074V234.225c0-22.43 8.91-43.941 24.771-59.801a84.57 84.57 0 0 1 59.801-24.771h47.92v217.18z" clip-rule="evenodd"/>
  <path fill="#ff791f" fill-rule="evenodd" d="M140.824 369.551h132.422V501.99a84.57 84.57 0 0 1-84.572 84.571h-47.85z" clip-rule="evenodd"/>
  <path fill="#ff791f" d="M256.691 385.209c47.155 0 85.382-38.227 85.382-85.382s-38.227-85.382-85.382-85.382-85.382 38.227-85.382 85.382 38.227 85.382 85.382 85.382"/>
  <path fill="#0e1259" fill-rule="evenodd" d="M157.377 352.992a85.407 85.407 0 0 1 16.708 169.174A85.408 85.408 0 0 1 72 438.403a85.396 85.396 0 0 1 85.377-85.411" clip-rule="evenodd"/>
  <path fill="#0e1259" d="M205.296 149.913c37.532 0 67.957-30.425 67.957-67.956S242.828 14 205.296 14 137.34 44.425 137.34 81.957s30.425 67.956 67.956 67.956"/>
</svg>
