<svg xmlns="http://www.w3.org/2000/svg" width="32" height="32" fill="none" viewBox="0 0 32 32">
  <path fill="#9cc0ff" fill-rule="evenodd" d="M16.002 0c3.21 0 5.81 2.69 5.81 6.008s-2.6 6.007-5.81 6.007-5.811-2.69-5.811-6.007C10.191 2.69 12.793 0 16.002 0M6.294 30.852c-2.596-1.95-3.172-5.707-1.285-8.391 1.886-2.684 5.52-3.28 8.116-1.33 2.597 1.951 3.172 5.708 1.286 8.392s-5.52 3.28-8.117 1.33m20.72-8.391c1.887 2.684 1.311 6.441-1.285 8.391s-6.23 1.355-8.117-1.329c-1.886-2.684-1.31-6.441 1.286-8.391s6.23-1.355 8.116 1.329M.286 11.775c.992-3.155 4.27-4.882 7.322-3.857 3.052 1.026 4.723 4.415 3.731 7.57s-4.27 4.883-7.322 3.857-4.723-4.414-3.731-7.57m24.106-3.857c3.052-1.025 6.33.702 7.322 3.857s-.679 6.545-3.73 7.57c-3.053 1.026-6.331-.701-7.323-3.857-.992-3.155.679-6.544 3.73-7.57" clip-rule="evenodd"/>
</svg>
