<svg xmlns="http://www.w3.org/2000/svg" width="282" height="292" fill="none" viewBox="0 0 282 292">
  <path fill="#e6e6e6" d="M185.351 266.433c-24.458 12.682-64.116 12.682-88.538 0s-24.46-33.155 0-45.801c24.459-12.646 64.117-12.682 88.538 0 24.422 12.682 24.459 33.155 0 45.801"/>
  <path fill="#16a34a" d="M145.553 200.961c.054-4.196 1.104-8.308 3.051-11.947 1.946-3.639 4.723-6.685 8.07-8.85 12.598-8.331 28.362 2.783 29.028 4.774s-2.249 10.553-8.278 14.98-18.896 10.959-31.871 1.043"/>
  <path fill="#000" d="M185.795 184.454a36.15 36.15 0 0 0-22.551.891 36.42 36.42 0 0 0-17.691 14.109 23.3 23.3 0 0 1 3.047-11.223 23.1 23.1 0 0 1 8.082-8.317c12.663-7.699 28.428 2.67 29.113 4.54" opacity=".1"/>
  <path fill="#16a34a" d="M147.736 239.188c-6.104-21.203-3.924-45.893-2.234-58.774 2.997-22.882 1.816-35.485 0-43.328-2.87-12.419-5.45-18.638-7.266-18.048-1.817.591-.818 7.013.327 19.026 1.453 15.169-.654 28.418-3.307 44.694a231.8 231.8 0 0 0-2.288 57.482c.143.574.409 1.108.78 1.564a4 4 0 0 0 1.363 1.075 11.43 11.43 0 0 0 10.481 0 4 4 0 0 0 1.352-1.079c.367-.456.631-.989.774-1.56a2.3 2.3 0 0 0 .018-1.052"/>
  <path fill="#000" d="M147.736 239.188c-6.104-21.203-3.924-45.893-2.234-58.774 2.997-22.882 1.816-35.485 0-43.328-2.87-12.419-5.45-18.638-7.266-18.048-1.817.591-.818 7.013.327 19.026 1.453 15.169-.654 28.418-3.307 44.694a231.8 231.8 0 0 0-2.288 57.482c.143.574.409 1.108.78 1.564a4 4 0 0 0 1.363 1.075 11.43 11.43 0 0 0 10.481 0 4 4 0 0 0 1.352-1.079c.367-.456.631-.989.774-1.56a2.3 2.3 0 0 0 .018-1.052" opacity=".1"/>
  <path fill="#16a34a" d="M132.139 195.405a24.44 24.44 0 0 0-7.536-10.349 25.5 25.5 0 0 0-11.865-5.288c-15.17-2.492-25.313 6.599-25.313 9.495s1.41 3.51 7.07 7.915c5.659 4.405 13.741 10.144 23.288 8.775a18.74 18.74 0 0 0 8.594-3.458 18 18 0 0 0 5.762-7.09"/>
  <path fill="#000" d="M132.139 194.985c-1.53-3.928-4.129-7.405-7.536-10.078-3.406-2.674-7.499-4.451-11.865-5.15-15.17-2.427-25.313 6.426-25.313 9.246 6.4-3.811 31.316-8.152 44.714 5.982" opacity=".15"/>
  <path fill="#16a34a" d="M132.139 194.985c-13.404-14.202-38.33-9.793-44.714-5.965 0-2.837 10.13-11.69 25.323-9.263 4.365.702 8.455 2.48 11.86 5.153 3.405 2.674 6.002 6.149 7.531 10.075"/>
  <path fill="#000" d="M132.139 194.985c-13.404-14.202-38.33-9.793-44.714-5.965 0-2.837 10.13-11.69 25.323-9.263 4.365.702 8.455 2.48 11.86 5.153 3.405 2.674 6.002 6.149 7.531 10.075" opacity=".1"/>
  <path fill="#16a34a" d="M147.789 159.976c.758-3.09 2.379-5.939 4.698-8.257s5.255-4.022 8.508-4.941c11.297-3.219 19.915 2.517 20.242 4.621s-.115 3.417-3.99 7.193-9.235 7.426-16.657 7.336a16.2 16.2 0 0 1-7.193-1.494c-2.231-1.037-4.156-2.568-5.608-4.458"/>
  <path fill="#000" d="M147.789 159.227c.76-2.927 2.385-5.625 4.711-7.82 2.325-2.195 5.268-3.81 8.529-4.68 11.327-3.048 19.967 2.384 20.296 4.377-5.277-2.214-24.78-3.151-33.536 8.123" opacity=".15"/>
  <path fill="#16a34a" d="M147.789 159.227c8.756-11.246 28.259-10.296 33.536-8.125-.329-2.019-8.969-7.413-20.315-4.377-3.265.874-6.209 2.491-8.531 4.687s-3.94 4.893-4.69 7.815"/>
  <path fill="#000" d="M147.789 159.227c8.756-11.246 28.259-10.296 33.536-8.125-.329-2.019-8.969-7.413-20.315-4.377-3.265.874-6.209 2.491-8.531 4.687s-3.94 4.893-4.69 7.815" opacity=".1"/>
  <path fill="#16a34a" d="M136.61 156.81s-2.698-9.931-11.384-13.454-18.074-1.77-19.589.389c-1.515 2.16 2.273 12.144 10.811 15.808 10.552 4.532 19.405-.088 20.162-2.743"/>
  <path fill="#000" d="M136.61 156.992c-12.419-10.72-31.299-13.203-31.299-13.203 1.531-2.198 10.831-4.002 19.795-.358 8.572 3.448 11.355 13.078 11.504 13.561" opacity=".1"/>
</svg>
