<svg xmlns="http://www.w3.org/2000/svg" width="282" height="292" fill="none" viewBox="0 0 282 292">
  <path fill="#e6e6e6" d="M179.785 231.431c-21.395 11.289-56.084 11.289-77.446 0s-21.394-29.515 0-40.773c21.395-11.257 56.084-11.289 77.446 0s21.394 29.515 0 40.773"/>
  <path fill="#4ade80" d="M138.309 167.142s.097-11.693-8.067-18.031c-8.164-6.339-18.523-7.097-20.765-5.129s-2.211 17.306 5.163 24.354c7.373 7.048 21.136 5.741 23.669-1.194"/>
  <path fill="#000" d="M138.309 167.126c-9.875-15.257-28.8-23.144-28.8-23.144 2.242-1.968 12.488-1.323 20.765 5.129 7.938 6.177 8.035 17.45 8.035 18.015" opacity=".1"/>
  <path fill="#4ade80" d="M147.183 181.465c-1.42-17.5-5.76-28.048-7.357-28.048s.968 12-1.517 27.773c-1.613 10.242-4.84 20.467-5.631 24.693-.194.452-.255.95-.177 1.435a3.95 3.95 0 0 0 2.129 2.581 11.6 11.6 0 0 0 10.407 0 3.96 3.96 0 0 0 2.114-2.581q.036-.314 0-.629c.712-8.393.723-16.83.032-25.224"/>
  <path fill="#000" d="M147.183 181.465c-1.42-17.5-5.76-28.048-7.357-28.048s.968 12-1.517 27.773c-1.613 10.242-4.84 20.467-5.631 24.693-.194.452-.255.95-.177 1.435a3.95 3.95 0 0 0 2.129 2.581 11.6 11.6 0 0 0 10.407 0 3.96 3.96 0 0 0 2.114-2.581q.036-.314 0-.629c.712-8.393.723-16.83.032-25.224" opacity=".1"/>
</svg>
