<svg xmlns="http://www.w3.org/2000/svg" width="282" height="502" fill="none" viewBox="0 0 282 502">
  <path fill="#e6e6e6" d="M174.736 492.353c-20.523 12.151-53.801 12.151-74.293 0s-20.524-31.767 0-43.884c20.523-12.116 53.8-12.151 74.293 0s20.524 31.767 0 43.884"/>
  <path fill="#451a03" d="M174.228 104.166c1.46-46.052-27.416-70.92-30.928-67.132-4.746 5.213 23.939 20.454 12.673 76.465-7.301 36.251-42.68 69.948-59.943 118.433-17.264 48.486-2.834 90.142 11.074 122.709 20.202 47.287 10.831 79.454 7.267 109.171-.288.965-.44 1.965-.452 2.972 0 3.476 2.295 6.951 6.954 9.558 9.127 5.214 23.957 5.214 33.032 0 4.363-2.52 6.623-5.804 6.815-9.106a261.6 261.6 0 0 0 1.251-60.303c-2.573-27.51-10.97-46.4-29.554-82.947-17.229-33.992-19.332-74.501 2.503-114.437s38.108-67.793 39.308-105.383"/>
  <path fill="#15803d" d="M96.516 371.272a32.33 32.33 0 0 0-6.954-28.727c-9.875-11.157-25.139-12.668-28.581-10.183s-4.329 20.332 6.589 29.821c12.17 10.705 24.547 9.784 28.946 9.089"/>
  <path fill="#000" d="M96.516 371.272a32.33 32.33 0 0 0-6.954-28.727c-9.875-11.157-25.139-12.668-28.581-10.183s-4.329 20.332 6.589 29.821c12.17 10.705 24.547 9.784 28.946 9.089" opacity=".1"/>
  <path fill="#000" d="M60.929 332.362s23.104 9.297 35.587 38.91a32.38 32.38 0 0 0-6.954-28.727c-9.927-11.157-25.191-12.668-28.633-10.183" opacity=".1"/>
  <path fill="#fff" d="M94.534 367.327a.4.4 0 0 1-.382-.226 92.5 92.5 0 0 0-13.23-19.255 71.2 71.2 0 0 0-16.307-13.051.44.44 0 0 1-.174-.591.43.43 0 0 1 .26-.209.44.44 0 0 1 .332.035 72.1 72.1 0 0 1 16.532 13.243 92.8 92.8 0 0 1 13.352 19.498.453.453 0 0 1-.174.591.5.5 0 0 1-.209-.035"/>
  <path fill="#15803d" d="M169.986 178.285a30.7 30.7 0 0 1 6.954-28.657c9.961-11.244 25.052-12.634 28.494-10.167s4.329 20.281-6.554 29.77c-12.222 10.67-24.513 9.749-28.894 9.054"/>
  <path fill="#000" d="M169.986 178.285a30.7 30.7 0 0 1 6.954-28.657c9.961-11.244 25.052-12.634 28.494-10.167s4.329 20.281-6.554 29.77c-12.222 10.67-24.513 9.749-28.894 9.054" opacity=".1"/>
  <path fill="#000" d="M205.485 139.461c-3.477-2.467-18.532-1.077-28.494 10.167a30.65 30.65 0 0 0-6.954 28.657c12.396-29.544 35.448-38.824 35.448-38.824" opacity=".1"/>
  <path fill="#fff" d="M171.967 174.357a.5.5 0 0 1-.208 0 .45.45 0 0 1-.174-.59 92.5 92.5 0 0 1 13.317-19.464 72.4 72.4 0 0 1 16.533-13.26.417.417 0 0 1 .591.174.42.42 0 0 1 .036.331.44.44 0 0 1-.21.26 71.8 71.8 0 0 0-16.272 13.033 92 92 0 0 0-13.195 19.29.44.44 0 0 1-.418.226"/>
  <path fill="#15803d" d="M167.829 53.004a22.58 22.58 0 0 1-5.789-20.993c2.382-10.827 11.613-17.152 14.708-16.787 3.094.364 10.083 11.504 6.467 21.531a26.07 26.07 0 0 1-15.386 16.25"/>
  <path fill="#000" d="M167.829 53.004a22.58 22.58 0 0 1-5.789-20.993c2.382-10.827 11.613-17.152 14.708-16.787 3.094.364 10.083 11.504 6.467 21.531a26.07 26.07 0 0 1-15.386 16.25" opacity=".1"/>
  <path fill="#000" d="M176.748 15.224c-3.094-.366-12.326 5.96-14.707 16.787a22.68 22.68 0 0 0 5.789 20.993c-2.608-23.53 8.918-37.78 8.918-37.78" opacity=".1"/>
  <path fill="#fff" d="M167.482 48.52a.436.436 0 0 1-.435-.434 61.3 61.3 0 0 1 1.652-15.97 49.8 49.8 0 0 1 5.441-13.73.453.453 0 0 1 .609-.121.42.42 0 0 1 .187.27.43.43 0 0 1-.066.32 48.7 48.7 0 0 0-5.337 13.469 60.6 60.6 0 0 0-1.617 15.762.43.43 0 0 1-.434.435"/>
  <path fill="#15803d" d="M220.559 200.789s-17.594-20.02-37.9-17.031c-20.705 3.041-35.743 16.892-35.97 22.835s18.759 20.35 38.804 16.892c24.739-4.24 32.041-17.222 35.066-22.696"/>
  <path fill="#000" d="M220.559 200.789s-17.594-20.02-37.9-17.031c-20.705 3.041-35.743 16.892-35.97 22.835s18.759 20.35 38.804 16.892c24.739-4.24 32.041-17.222 35.066-22.696" opacity=".1"/>
  <path fill="#000" d="M182.659 183.758c-20.705 3.041-35.744 16.892-35.97 22.835 0 0 30.25-17.569 73.869-5.804 0 0-17.593-20.02-37.899-17.031" opacity=".1"/>
  <path fill="#fff" d="M152.217 204.421a.42.42 0 0 1-.399-.261.45.45 0 0 1 .226-.573 102 102 0 0 1 28.894-6.951c9.718-.8 19.314-.209 33.118 2.068a.42.42 0 0 1 .348.486.4.4 0 0 1-.165.288.4.4 0 0 1-.322.077c-13.734-2.259-23.261-2.85-32.91-2.05a100.9 100.9 0 0 0-28.616 6.794.3.3 0 0 1-.174.122"/>
  <path fill="#15803d" d="M131.894 0a26.64 26.64 0 0 1 20.271 10.305c7.702 9.541 5.581 18.074 2.608 23.148-3.06.643-16.551-1.042-21.557-10.965A26.7 26.7 0 0 1 131.894 0"/>
  <path fill="#000" d="M131.894 0a26.64 26.64 0 0 1 20.271 10.305c7.702 9.541 5.581 18.074 2.608 23.148-3.06.643-16.551-1.042-21.557-10.965A26.7 26.7 0 0 1 131.894 0" opacity=".1"/>
  <path fill="#000" d="M131.895 0c19.975 14.546 22.878 33.453 22.878 33.453 2.973-5.074 5.094-13.607-2.608-23.148A26.63 26.63 0 0 0 131.895 0" opacity=".1"/>
  <path fill="#fff" d="M153.974 30.639a.44.44 0 0 1-.417-.313 54.7 54.7 0 0 0-6.954-14.459 70 70 0 0 0-12.17-13.277.43.43 0 0 1-.131-.304.4.4 0 0 1 .131-.304.4.4 0 0 1 .305-.14.4.4 0 0 1 .304.14 71 71 0 0 1 12.274 13.433 55.6 55.6 0 0 1 6.954 14.72.434.434 0 0 1-.313.538z"/>
  <path fill="#15803d" d="M116.944 182.455s-2.904-16.944-15.091-22.157-25.347-2.798-27.485.399c-2.139 3.198 2.764 18.647 15.055 23.253a32.05 32.05 0 0 0 27.521-1.495"/>
  <path fill="#000" d="M116.944 182.455s-2.904-16.944-15.091-22.157-25.347-2.798-27.485.399c-2.139 3.198 2.764 18.647 15.055 23.253a32.05 32.05 0 0 0 27.521-1.495" opacity=".1"/>
  <path fill="#000" d="M101.854 160.298c-12.396-5.336-25.347-2.798-27.486.399 0 0 22.6.574 42.576 21.758 0 0-2.903-16.944-15.09-22.157" opacity=".1"/>
  <path fill="#fff" d="M113.015 179.014a.4.4 0 0 1-.278-.105 73.2 73.2 0 0 0-16.534-11.435 64.8 64.8 0 0 0-17.976-5.908.434.434 0 0 1-.197-.774.45.45 0 0 1 .319-.095 66.2 66.2 0 0 1 18.254 6.013 72.8 72.8 0 0 1 16.69 11.539.44.44 0 0 1 .098.483.48.48 0 0 1-.376.282"/>
  <path fill="#15803d" d="M111.137 396.609a46.94 46.94 0 0 0-40.629-23.634c-28.685 0-44.314 20.263-43.462 25.754.852 5.492 4.38 7.699 16.203 14.233 11.821 6.535 29.067 11.209 46.192 5.753 14.047-4.501 18.689-12.478 21.696-22.106"/>
  <path fill="#000" d="M111.137 396.609a46.94 46.94 0 0 0-40.629-23.634c-28.685 0-44.314 20.263-43.462 25.754.852 5.492 4.38 7.699 16.203 14.233 11.821 6.535 29.067 11.209 46.192 5.753 14.047-4.501 18.689-12.478 21.696-22.106" opacity=".1"/>
  <path fill="#000" d="M111.119 396.593c-.869-.608-36.786-25.129-83.935 3.215 0-.347-.139-.695-.19-1.077-.8-5.492 14.829-25.825 43.462-25.772a46.95 46.95 0 0 1 40.663 23.634" opacity=".1"/>
  <path fill="#fff" d="M30.505 398.33a.43.43 0 0 1-.33-.156.45.45 0 0 1 0-.626c.156-.122 15.385-12.321 44.523-11.8 19.28.33 31.189 7.403 31.293 7.473a.45.45 0 0 1 .156.608.45.45 0 0 1-.591.139c-.121 0-11.839-6.951-30.876-7.351-28.772-.504-43.81 11.487-43.949 11.609a.44.44 0 0 1-.226.104"/>
  <path fill="#fbcfe8" d="M179.773 352.173s2.538-1.738 1.895-3.806-4.155-2.068-4.155-2.068.522-2.138-2.243-4.102c-2.764-1.963-5.841-1.859-12.03 2.416a82 82 0 0 0-6.676 5.214c2.347-3.372 5.216-7.543 6.12-9.211 1.738-2.972 4.433-9.801.521-12.738s-5.528-.348-5.528-.348-.852-2.937-3.043-2.972c-2.19-.034-3.251 3.302-3.251 3.302s-1.877-1.147-4.607.852c-2.729 1.998-3.564 5.005-1.408 12.165.609 2.068 1.391 4.223 2.191 6.204-2.191-2.85-4.538-5.857-5.616-7.038-2.329-2.52-7.962-7.23-11.978-4.432s-2.034 5.214-2.034 5.214-3.06-.105-3.773 1.981c-.712 2.085 2.139 4.118 2.139 4.118s-1.739 1.408-.591 4.623c1.147 3.215 3.633 4.953 11.161 5.214 2.016 0 4.137 0 6.154-.157-3.355 1.199-6.85 2.468-8.293 3.128-3.111 1.425-9.335 5.318-7.91 10.01 1.356 4.397 4.277 3.476 4.277 3.476s-1.043 2.867.713 4.188 4.572-.765 4.572-.765.835 2.034 4.242 2.016 5.824-1.946 8.31-9.036c.748-2.121 1.391-4.397 1.93-6.552.087 3.615.226 7.438.417 9.037.382 3.475 2.173 10.531 7.076 10.618 4.607 0 4.676-2.972 4.676-2.972s2.417 1.877 4.207.608c1.791-1.268.696-4.57.696-4.57s2.19-.174 3.216-3.476 0-6.134-6.033-10.705a70 70 0 0 0-3.876-2.728c3.112.921 6.223 1.738 7.632 2.085 3.355.678 10.691 1.182 12.291-3.476 1.495-4.292-1.391-5.317-1.391-5.317"/>
  <path fill="#e7e7ee" d="M172.506 352.243c-2.781-1.738-8.206-1.512-11.3-1.13-2.26.278-6.954.921-7.771 3.597-.104.296.226.626.469.73 2.556 1.008 5.737-.903 8.293-1.494 3.39-.8 6.624-.348 10.048-.661a.553.553 0 0 0 .502-.777.56.56 0 0 0-.241-.265"/>
  <path fill="#e7e7ee" d="M151.263 355.509h-.348c.239-.215.413-.492.504-.8a1.18 1.18 0 0 0 1.113-.173c5.215-4.467 4.329-15.519 1.617-21.011 0-.174-.8-.521-.783-.121a55.3 55.3 0 0 1-.608 11.226c-.452 2.45-1.739 5.544-2.052 8.15a8 8 0 0 0-.799-.886 16.2 16.2 0 0 0-4.207-3.058c-3.86-1.895-9.458-4.137-13.908-2.955-.487.122.104.678.33.747a32.5 32.5 0 0 1 9.596 4.032c1.965 1.251 4.538 2.729 5.598 4.901a1.43 1.43 0 0 0 1.27.817 40.3 40.3 0 0 0-6.694 4.987 13.35 13.35 0 0 0-4.607 8.064c0 .504 1.13.938 1.304.4.435-1.339 2.052-2.538 2.956-3.65a35.1 35.1 0 0 1 7.823-6.569c.417-.226.817-.486 1.217-.73l.347-.191a29 29 0 0 0 2.904 3.632 28.9 28.9 0 0 1 5.441 9.767c0 .365 1.009.73 1.078.191.487-4.119-1.043-7.768-2.799-11.4-.817-1.79-3.407-7.369-6.293-5.37"/>
  <path fill="#86efac" d="M156.618 354.919a4.81 4.81 0 0 1-2.973 4.447 4.815 4.815 0 1 1-1.843-9.261 4.834 4.834 0 0 1 4.816 4.814"/>
  <path fill="#fbcfe8" d="M136.133 183.179s1.677-1.149 1.252-2.515-2.746-1.367-2.746-1.367.345-1.413-1.482-2.71c-1.827-1.298-3.86-1.229-7.951 1.596a55 55 0 0 0-4.412 3.445c1.551-2.228 3.447-4.984 4.045-6.087 1.149-1.963 2.929-6.477.344-8.418s-3.653-.23-3.653-.23-.563-1.941-2.011-1.964-2.148 2.183-2.148 2.183-1.241-.758-3.045.562-2.355 3.308-.931 8.04a46 46 0 0 0 1.448 4.1c-1.448-1.884-2.999-3.871-3.711-4.652-1.54-1.665-5.262-4.777-7.916-2.928s-1.344 3.445-1.344 3.445-2.023-.069-2.494 1.31c-.47 1.378 1.414 2.721 1.414 2.721s-1.15.931-.391 3.055 2.401 3.274 7.376 3.446c1.333 0 2.734 0 4.067-.103-2.217.792-4.527 1.63-5.48 2.067-2.057.942-6.17 3.514-5.228 6.615.896 2.906 2.827 2.297 2.827 2.297s-.69 1.895.471 2.768c1.16.873 3.021-.505 3.021-.505s.552 1.343 2.804 1.332c2.252-.012 3.849-1.286 5.492-5.972.494-1.401.919-2.906 1.275-4.33.057 2.389.149 4.916.276 5.972.252 2.297 1.436 6.96 4.676 7.017 3.044 0 3.09-1.963 3.09-1.963s1.597 1.24 2.781.401c1.183-.838.459-3.02.459-3.02s1.448-.115 2.126-2.297 0-4.054-3.987-7.075a47 47 0 0 0-2.562-1.803 127 127 0 0 0 5.044 1.378c2.217.448 7.066.781 8.123-2.297.988-2.836-.919-3.514-.919-3.514"/>
  <path fill="#e7e7ee" d="M131.331 183.224c-1.839-1.148-5.423-.999-7.468-.746-1.494.184-4.596.608-5.136 2.377-.069.195.149.414.31.483 1.689.666 3.792-.598 5.481-.988 2.24-.528 4.377-.23 6.64-.437a.367.367 0 0 0 .173-.689"/>
  <path fill="#e7e7ee" d="M117.291 185.383h-.23c.157-.142.273-.325.333-.529a.78.78 0 0 0 .735-.114c3.447-2.952 2.861-10.256 1.069-13.886 0-.115-.529-.344-.517-.08a36.6 36.6 0 0 1-.402 7.419c-.299 1.62-1.149 3.664-1.356 5.387a5 5 0 0 0-.529-.586 10.6 10.6 0 0 0-2.78-2.021c-2.551-1.252-6.25-2.734-9.192-1.953-.321.081.069.448.219.494a21.5 21.5 0 0 1 6.342 2.664c1.298.827 2.999 1.804 3.699 3.239a.94.94 0 0 0 .839.54 26.7 26.7 0 0 0-4.423 3.296 8.82 8.82 0 0 0-3.045 5.329c0 .333.747.62.862.264.287-.884 1.356-1.676 1.953-2.411a23.2 23.2 0 0 1 5.17-4.342c.276-.149.54-.321.804-.482l.23-.126c.574.85 1.215 1.653 1.919 2.4a19.1 19.1 0 0 1 3.596 6.454c0 .242.666.483.712.127.322-2.722-.689-5.134-1.849-7.534-.54-1.183-2.252-4.87-4.159-3.549"/>
  <path fill="#86efac" d="M120.83 184.992a3.185 3.185 0 0 1-1.965 2.94 3.183 3.183 0 0 1-2.986-5.585 3.2 3.2 0 0 1 1.768-.536 3.19 3.19 0 0 1 3.183 3.181"/>
  <path fill="#fbcfe8" d="M163.385 36.575s1.677-1.148 1.252-2.515-2.746-1.367-2.746-1.367.345-1.412-1.482-2.71-3.861-1.229-7.951 1.596a54 54 0 0 0-4.412 3.446c1.551-2.228 3.447-4.984 4.045-6.087 1.149-1.964 2.929-6.478.344-8.418-2.585-1.942-3.653-.23-3.653-.23s-.563-1.941-2.011-1.964-2.148 2.182-2.148 2.182-1.241-.758-3.045.563-2.355 3.307-.931 8.04c.402 1.366.919 2.79 1.448 4.1-1.448-1.884-2.999-3.871-3.711-4.652-1.54-1.665-5.262-4.778-7.916-2.929-2.654 1.85-1.345 3.446-1.345 3.446s-2.022-.07-2.493 1.309c-.471 1.378 1.413 2.722 1.413 2.722s-1.148.93-.39 3.055 2.401 3.273 7.376 3.445c1.333 0 2.734 0 4.067-.103-2.217.793-4.527 1.63-5.48 2.067-2.057.942-6.17 3.515-5.228 6.616.896 2.905 2.827 2.297 2.827 2.297s-.69 1.895.471 2.767c1.16.873 3.021-.505 3.021-.505s.552 1.344 2.804 1.332c2.252-.011 3.849-1.286 5.492-5.972.494-1.4.919-2.905 1.275-4.33.057 2.39.149 4.916.276 5.973.252 2.297 1.436 6.96 4.676 7.017 3.044 0 3.09-1.964 3.09-1.964s1.597 1.24 2.781.402c1.183-.838.459-3.02.459-3.02s1.448-.115 2.126-2.297 0-4.055-3.987-7.075a47 47 0 0 0-2.562-1.803c2.057.608 4.113 1.148 5.044 1.378 2.217.448 7.066.78 8.123-2.297.988-2.837-.919-3.515-.919-3.515"/>
  <path fill="#e7e7ee" d="M158.583 36.623c-1.839-1.149-5.423-1-7.468-.747-1.494.184-4.596.609-5.136 2.377-.069.196.149.414.31.483 1.689.666 3.792-.597 5.48-.988 2.241-.528 4.378-.23 6.641-.436a.367.367 0 0 0 .173-.69"/>
  <path fill="#e7e7ee" d="M144.542 38.78h-.229c.157-.141.273-.324.333-.528a.78.78 0 0 0 .735-.114c3.447-2.952 2.861-10.256 1.069-13.886 0-.115-.529-.344-.517-.08a36.6 36.6 0 0 1-.402 7.42c-.299 1.619-1.149 3.663-1.356 5.386a5 5 0 0 0-.529-.586 10.7 10.7 0 0 0-2.78-2.022c-2.551-1.251-6.25-2.733-9.192-1.952-.321.08.069.448.219.494a21.5 21.5 0 0 1 6.342 2.664c1.298.827 2.999 1.804 3.699 3.24a.95.95 0 0 0 .839.539 26.7 26.7 0 0 0-4.423 3.296 8.82 8.82 0 0 0-3.045 5.33c0 .332.747.62.862.263.287-.884 1.355-1.676 1.953-2.411a23.2 23.2 0 0 1 5.17-4.342c.276-.15.54-.321.804-.482l.23-.127a19 19 0 0 0 1.919 2.4 19.1 19.1 0 0 1 3.596 6.455c0 .241.666.483.712.127.322-2.722-.689-5.134-1.849-7.534-.54-1.183-2.252-4.87-4.16-3.55"/>
  <path fill="#86efac" d="M148.082 38.39a3.19 3.19 0 0 1-1.965 2.94 3.183 3.183 0 0 1-2.986-5.585 3.2 3.2 0 0 1 1.768-.536 3.195 3.195 0 0 1 3.183 3.181"/>
  <path fill="#000" d="M150.479 357.613a5.004 5.004 0 0 1-1.356-6.691 4.8 4.8 0 0 0-1.573 1.729 4.76 4.76 0 0 0-.565 2.268 4.79 4.79 0 0 0 3.501 4.663 4.8 4.8 0 0 0 5.417-2.161 5.06 5.06 0 0 1-5.424.192" opacity=".05"/>
</svg>
