<svg xmlns="http://www.w3.org/2000/svg" width="282" height="292" fill="none" viewBox="0 0 282 292">
  <path fill="#e6e6e6" d="M182.093 244.026c-22.782 12.022-59.72 12.022-82.467 0s-22.782-31.428 0-43.416c22.781-11.987 59.72-12.021 82.467 0s22.781 31.429 0 43.416"/>
  <path fill="#16a34a" d="M147.325 216.986c-5.825-19.956-2.887-40.187-2.887-54.27 0-12.743-2.68-28.886-4.449-28.715-1.77.172 0 12.366-1.873 29.007-.773 6.698-6.872 35.825-4.845 54.957a3.8 3.8 0 0 0 .736 1.471c.35.431.791.779 1.291 1.019a11.1 11.1 0 0 0 10.034 0 3.82 3.82 0 0 0 2.027-2.49c.066-.324.054-.66-.034-.979"/>
  <path fill="#000" d="M147.325 216.986c-5.825-19.956-2.887-40.187-2.887-54.27 0-12.743-2.68-28.886-4.449-28.715-1.77.172 0 12.366-1.873 29.007-.773 6.698-6.872 35.825-4.845 54.957a3.8 3.8 0 0 0 .736 1.471c.35.431.791.779 1.291 1.019a11.1 11.1 0 0 0 10.034 0 3.82 3.82 0 0 0 2.027-2.49c.066-.324.054-.66-.034-.979" opacity=".1"/>
  <path fill="#16a34a" d="M145.126 177.898a21.32 21.32 0 0 1 10.308-17.947c11.735-7.179 26.321 2.421 26.94 4.122.618 1.7-2.096 9.102-7.697 12.932s-17.525 9.377-29.551.893"/>
  <path fill="#000" d="M182.374 164.056a33.71 33.71 0 0 0-37.248 13.825 21.36 21.36 0 0 1 10.308-17.964c11.735-7.162 26.321 2.421 26.94 4.139" opacity=".1"/>
  <path fill="#16a34a" d="M135.299 173.038a23.25 23.25 0 0 0-17.92-14.872c-14.002-2.37-23.297 6.285-23.348 9.033-.052 2.748 1.305 3.435 6.528 7.539 5.223 4.105 12.697 9.635 21.51 8.364a16.99 16.99 0 0 0 13.23-10.064"/>
  <path fill="#000" d="M135.299 173.038a23.24 23.24 0 0 0-17.919-14.872c-14.002-2.37-23.297 6.285-23.349 9.033 5.893-3.727 28.898-8.02 41.268 5.839" opacity=".15"/>
  <path fill="#16a34a" d="M135.299 173.038c-12.37-13.859-35.375-9.566-41.234-5.822 0-2.765 9.364-11.421 23.366-9.051a23.24 23.24 0 0 1 17.868 14.873"/>
  <path fill="#000" d="M135.299 173.038c-12.37-13.859-35.375-9.566-41.234-5.822 0-2.765 9.364-11.421 23.366-9.051a23.24 23.24 0 0 1 17.868 14.873" opacity=".1"/>
</svg>
